<?xml version="1.0" encoding="utf-8"?>
<!-- Generator: Adobe Illustrator 21.1.0, SVG Export Plug-In . SVG Version: 6.00 Build 0)  -->
<svg version="1.1" id="Layer_1" xmlns="http://www.w3.org/2000/svg" xmlns:xlink="http://www.w3.org/1999/xlink" x="0px" y="0px"
	 viewBox="0 0 115 78.5" style="enable-background:new 0 0 115 78.5;" xml:space="preserve">
<style type="text/css">
	.st0{fill:#FFFFFF;}
</style>
<title>Artboard 1</title>
<path class="st0" d="M112.9,48l-8.5-3.1V21.2c0,0,0,0,0,0c0-0.1,0-0.1,0-0.2c0-0.1,0-0.1-0.1-0.2c0-0.1-0.1-0.1-0.1-0.2
	c0-0.1-0.1-0.1-0.1-0.2c0,0-0.1-0.1-0.2-0.1c-0.1,0-0.1-0.1-0.2-0.1l0,0l-22.3-7c-0.1,0-0.2,0-0.3,0V8.3l0,0c0-0.1,0-0.1,0-0.2
	c0-0.1,0-0.1-0.1-0.2c0-0.1-0.1-0.1-0.1-0.2c0-0.1-0.1-0.1-0.1-0.2c0,0-0.1-0.1-0.2-0.1c-0.1-0.1-0.2-0.1-0.3-0.1l0,0L58,0h-0.1
	h-0.2h-0.2h-0.1L35,7.3l0,0c-0.1,0-0.1,0.1-0.2,0.1c-0.1,0-0.1,0.1-0.2,0.1c0,0-0.1,0.1-0.1,0.2c0,0.1-0.1,0.1-0.1,0.2
	c0,0.1,0,0.1,0,0.2c0,0.1,0,0.1,0,0.2l0,0v4.5c-0.1,0-0.2,0-0.3,0L11.8,20c-0.4,0.1-0.7,0.5-0.7,1c0,0,0,0,0,0.1V45l-8.6,2.9
	c-1.7,0.4-2.8,2.1-2.4,3.9s2.1,2.8,3.9,2.4c0.2,0,0.4-0.1,0.6-0.2l54.2-18.7l52,18.7c1.7,0.6,3.5-0.3,4.1-1.9S114.5,48.5,112.9,48
	L112.9,48L112.9,48z M102.2,22v22.1L81,36.5V15.3L102.2,22z M59.8,28.8h-0.1l-0.3-0.1l-0.3,0h-0.6h-0.3l-0.3,0.1h-0.1l-21.2,7.4V9.1
	l21.2-6.9l21.2,6.9v26.6L59.8,28.8z M13,21.9L34.3,15v21.9L13,44.3V21.9z"/>
<path class="st0" d="M31.1,53L29,55c-1.2-1.4-3-2.2-4.8-2.3c-2.9,0-5.3,2.3-5.3,5.2c0,0,0,0,0,0.1c0,1,0.2,1.9,0.7,2.8
	c0.4,0.8,1.1,1.5,1.9,1.9c0.9,0.5,1.8,0.7,2.8,0.7c0.8,0,1.6-0.1,2.4-0.4c0.9-0.4,1.7-1,2.4-1.8l2,2.1c-0.9,1-2.1,1.8-3.3,2.4
	c-1.1,0.5-2.3,0.7-3.5,0.7c-2.2,0.1-4.4-0.8-6-2.3c-1.6-1.6-2.4-3.8-2.3-6c0-1.5,0.3-2.9,1.1-4.2c0.7-1.2,1.8-2.2,3-2.9
	c1.3-0.7,2.8-1.1,4.3-1.1C26.8,49.8,29.4,51,31.1,53z"/>
<path class="st0" d="M41.1,49.8c2.2,0,4.2,0.9,5.7,2.4c1.6,1.5,2.5,3.7,2.4,5.9c0,2.2-0.8,4.3-2.4,5.8c-3.2,3.2-8.4,3.2-11.6-0.1
	c0,0,0,0,0,0c-3.2-3.3-3.2-8.5,0.1-11.7C36.9,50.7,39,49.8,41.1,49.8z M41.1,52.7c-1.4,0-2.7,0.5-3.7,1.5c-1,1-1.5,2.4-1.5,3.9
	c-0.1,1.6,0.6,3.1,1.9,4.1c0.9,0.8,2.1,1.2,3.3,1.2c1.4,0,2.7-0.5,3.6-1.5c2-2.1,2-5.5,0-7.6C43.9,53.3,42.5,52.7,41.1,52.7
	L41.1,52.7z"/>
<path class="st0" d="M52.1,50.2H55l6.7,10.4V50.2h3v15.7h-2.9l-6.7-10.3v10.3h-3L52.1,50.2z"/>
<path class="st0" d="M68.3,50.2h3.6c1.7-0.1,3.5,0.2,5.1,0.8c1.2,0.6,2.1,1.6,2.8,2.8c1.2,2.4,1.4,5.3,0.5,7.8
	c-0.4,1-0.9,1.8-1.7,2.5c-0.7,0.6-1.4,1.1-2.3,1.4c-1.4,0.3-2.9,0.5-4.3,0.4h-3.6V50.2z M71.3,53.1V63h1.4c1,0.1,2-0.1,3-0.5
	c0.6-0.3,1.2-0.9,1.5-1.5c0.4-0.9,0.6-1.8,0.6-2.7c0.1-1.4-0.4-2.8-1.4-3.9c-1.1-1-2.6-1.4-4.1-1.3L71.3,53.1z"/>
<path class="st0" d="M91.1,49.8c2.2,0,4.2,0.9,5.7,2.4c1.6,1.5,2.5,3.7,2.4,5.9c0,2.2-0.8,4.3-2.4,5.8c-3.2,3.2-8.4,3.2-11.6,0
	c0,0,0,0,0,0c-3.2-3.2-3.2-8.5,0.1-11.7C86.8,50.7,88.9,49.8,91.1,49.8z M91.1,52.7c-1.4,0-2.7,0.5-3.7,1.5c-1,1-1.5,2.4-1.5,3.9
	c-0.1,1.6,0.6,3.1,1.9,4.1c0.9,0.8,2.1,1.2,3.3,1.2c1.4,0,2.7-0.5,3.6-1.5c2-2.1,2-5.5,0-7.6C93.8,53.3,92.5,52.7,91.1,52.7
	L91.1,52.7z"/>
<path class="st0" d="M17.3,78.3l1.2-8.1h0.1l3.3,6.6l3.3-6.6h0.1l1.2,8.1h-0.8l-0.8-5.8L22,78.3h-0.2l-2.9-5.8l-0.8,5.8H17.3z"/>
<path class="st0" d="M31.3,70.2l3.8,8.1h-0.9l-1.3-2.7h-3.5l-1.3,2.7h-0.9l3.8-8.1H31.3z M31.2,71.9l-1.4,2.9h2.8L31.2,71.9z"/>
<path class="st0" d="M36.3,78.3v-8.1h0.2l5.4,6.2v-6.2h0.8v8.1h-0.2l-5.3-6.1v6.1H36.3z"/>
<path class="st0" d="M47.9,70.2l3.8,8.1h-0.9l-1.3-2.7h-3.5l-1.3,2.7h-0.9l3.8-8.1H47.9z M47.8,71.9l-1.4,2.9h2.8L47.8,71.9z"/>
<path class="st0" d="M60.7,71.6l-0.6,0.6c-0.4-0.4-0.9-0.8-1.5-1c-0.5-0.2-1-0.3-1.6-0.3c-0.6,0-1.3,0.2-1.8,0.5
	c-0.6,0.3-1,0.7-1.3,1.3c-0.3,0.5-0.5,1.1-0.5,1.7c0,0.6,0.2,1.2,0.5,1.8c0.3,0.5,0.8,1,1.4,1.3c0.6,0.3,1.2,0.5,1.9,0.5
	c0.8,0,1.5-0.2,2.1-0.7c0.6-0.5,0.9-1.1,1-1.8h-2.6v-0.8h3.5c0.1,1.1-0.3,2.2-1.1,3c-0.8,0.8-1.9,1.2-3,1.1
	c-1.4,0.1-2.7-0.5-3.6-1.5c-0.7-0.8-1-1.7-1-2.7c0-0.8,0.2-1.5,0.6-2.1c0.4-0.7,0.9-1.2,1.6-1.6c0.7-0.4,1.5-0.6,2.3-0.6
	c0.7,0,1.3,0.1,1.9,0.4C59.6,70.7,60.2,71.1,60.7,71.6z"/>
<path class="st0" d="M62.8,70.2h4.6V71h-3.8v2.5h3.8v0.8h-3.8v3.2h3.8v0.8h-4.6V70.2z"/>
<path class="st0" d="M68.4,78.3l1.2-8.1h0.1l3.3,6.6l3.3-6.6h0.1l1.2,8.1h-0.8L76,72.5l-2.9,5.8h-0.2L70,72.5l-0.8,5.8H68.4z"/>
<path class="st0" d="M79.1,70.2h4.6V71H80v2.5h3.8v0.8H80v3.2h3.8v0.8h-4.6L79.1,70.2z"/>
<path class="st0" d="M85.2,78.3v-8.1h0.2l5.4,6.2v-6.2h0.8v8.1h-0.2L86,72.2v6.1H85.2z"/>
<path class="st0" d="M92.7,71v-0.8h4.4V71h-1.8v7.3h-0.8V71H92.7z"/>
</svg>
